<svg width="150" height="150" viewBox="0 0 150 150" fill="none" xmlns="http://www.w3.org/2000/svg">
<path d="M35.4932 108.896H123.882C127.954 108.896 131.25 105.601 131.25 101.528V28.125H28.125V101.528C28.125 105.601 31.4209 108.896 35.4932 108.896Z" fill="#FF8000"/>
<path d="M26.1182 118.271H114.507C118.579 118.271 121.875 114.976 121.875 110.903V37.5H18.75V110.903C18.75 114.976 22.0459 118.271 26.1182 118.271Z" fill="#FFA64C"/>
<path d="M140.625 75.4395V131.689C140.625 136.86 136.421 141.064 131.25 141.064H18.75C13.5791 141.064 9.375 136.86 9.375 131.689V56.2207C9.375 51.0498 13.5791 46.8457 18.75 46.8457H69.1553C72.7441 46.8457 76.0107 48.8818 77.5781 52.1045L84.3896 66.0645H131.25C136.421 66.0645 140.625 70.2686 140.625 75.4395Z" fill="#3D5AFE"/>
<path d="M103.125 75C103.125 71.9678 102.92 68.9795 102.524 66.0645H84.3896L77.5781 52.1045C76.0107 48.8818 72.7295 46.8457 69.1553 46.8457H18.75C13.5791 46.8457 9.375 51.0498 9.375 56.2207V131.689C9.375 132.671 9.52148 133.623 9.81445 134.517C18.2227 138.428 27.6123 140.625 37.5 140.625C73.7402 140.625 103.125 111.24 103.125 75Z" fill="#536DFE"/>
</svg>
