<svg width="50" height="50" viewBox="0 0 50 50" fill="none" xmlns="http://www.w3.org/2000/svg">
<path d="M13.5417 16.6666C15.2676 16.6666 16.6667 15.2675 16.6667 13.5416C16.6667 11.8157 15.2676 10.4166 13.5417 10.4166C11.8158 10.4166 10.4167 11.8157 10.4167 13.5416C10.4167 15.2675 11.8158 16.6666 13.5417 16.6666Z" fill="#0F0F0F"/>
<path d="M10.4167 20.8333C10.4167 19.6828 11.3494 18.75 12.5 18.75H14.5834C15.7339 18.75 16.6667 19.6827 16.6667 20.8333V37.5C16.6667 38.6506 15.7339 39.5833 14.5834 39.5833H12.5C11.3494 39.5833 10.4167 38.6506 10.4167 37.5V20.8333Z" fill="#0F0F0F"/>
<path d="M22.9166 39.5833H25C26.1506 39.5833 27.0833 38.6506 27.0833 37.5V28.125C27.0833 25 33.3333 22.9167 33.3333 27.0833V37.5008C33.3333 38.6515 34.266 39.5833 35.4166 39.5833H37.5C38.6506 39.5833 39.5833 38.6506 39.5833 37.5V25C39.5833 20.8333 36.4583 18.75 32.2916 18.75C28.125 18.75 27.0833 21.875 27.0833 21.875V20.8333C27.0833 19.6827 26.1506 18.75 25 18.75H22.9166C21.766 18.75 20.8333 19.6828 20.8333 20.8333V37.5C20.8333 38.6506 21.766 39.5833 22.9166 39.5833Z" fill="#0F0F0F"/>
<path fill-rule="evenodd" clip-rule="evenodd" d="M41.6666 2.08337C45.1185 2.08337 47.9166 4.8816 47.9166 8.33337V41.6667C47.9166 45.1186 45.1185 47.9167 41.6666 47.9167H8.33331C4.88154 47.9167 2.08331 45.1186 2.08331 41.6667V8.33337C2.08331 4.8816 4.88154 2.08337 8.33331 2.08337H41.6666ZM41.6666 6.25004C42.8173 6.25004 43.75 7.18279 43.75 8.33337V41.6667C43.75 42.8173 42.8173 43.75 41.6666 43.75H8.33331C7.18273 43.75 6.24998 42.8173 6.24998 41.6667V8.33337C6.24998 7.18279 7.18273 6.25004 8.33331 6.25004H41.6666Z" fill="#0F0F0F"/>
</svg>
