<svg width="50" height="50" viewBox="0 0 50 50" fill="none" xmlns="http://www.w3.org/2000/svg">
<path d="M20.8333 39.5833H12.9167C10.5831 39.5833 9.41633 39.5833 8.52504 39.1291C7.74102 38.7297 7.1036 38.0923 6.70415 37.3083C6.25 36.417 6.25 35.2502 6.25 32.9166V17.0833C6.25 14.7498 6.25 13.583 6.70415 12.6917C7.1036 11.9076 7.74102 11.2702 8.52504 10.8708C9.41633 10.4166 10.5831 10.4166 12.9167 10.4166H37.0833C39.4169 10.4166 40.5838 10.4166 41.475 10.8708C42.259 11.2702 42.8965 11.9076 43.2958 12.6917C43.75 13.583 43.75 14.7498 43.75 17.0833V20.8333M42.9306 17.2131L32.3956 24.2364C29.7227 26.0183 28.3862 26.9093 26.9417 27.2556C25.665 27.5614 24.3342 27.5614 23.0577 27.2556C21.6131 26.9093 20.2766 26.0183 17.6036 24.2364L6.55721 16.8721M29.1667 43.75L33.3854 42.9062C33.7531 42.8327 33.9371 42.7958 34.1085 42.7285C34.2608 42.6689 34.4056 42.5914 34.5396 42.4979C34.6908 42.3925 34.8233 42.26 35.0887 41.9945L43.75 33.3333C44.9006 32.1827 44.9006 30.3173 43.75 29.1666C42.5994 28.016 40.734 28.016 39.5833 29.1666L30.9221 37.8279C30.6567 38.0933 30.5242 38.2258 30.4187 38.377C30.3252 38.511 30.2477 38.6558 30.1881 38.8081C30.1208 38.9795 30.084 39.1635 30.0104 39.5312L29.1667 43.75Z" stroke="black" stroke-width="4" stroke-linecap="round" stroke-linejoin="round"/>
</svg>
