<svg width="25" height="25" viewBox="0 0 25 25" fill="none" xmlns="http://www.w3.org/2000/svg">
<path d="M12.5 18.75C12.2237 18.75 11.9588 18.6403 11.7634 18.4449C11.5681 18.2496 11.4583 17.9846 11.4583 17.7084V9.37504C11.4583 9.09877 11.5681 8.83382 11.7634 8.63847C11.9588 8.44312 12.2237 8.33337 12.5 8.33337C12.7763 8.33337 13.0412 8.44312 13.2366 8.63847C13.4319 8.83382 13.5417 9.09877 13.5417 9.37504V17.7084C13.5417 17.9846 13.4319 18.2496 13.2366 18.4449C13.0412 18.6403 12.7763 18.75 12.5 18.75Z" fill="#2CA9BC"/>
<path d="M15.625 22.9167H9.37501C9.09875 22.9167 8.83379 22.807 8.63844 22.6116C8.44309 22.4163 8.33335 22.1513 8.33335 21.875C8.33335 21.5988 8.44309 21.3338 8.63844 21.1385C8.83379 20.9431 9.09875 20.8334 9.37501 20.8334H15.625C15.9013 20.8334 16.1662 20.9431 16.3616 21.1385C16.5569 21.3338 16.6667 21.5988 16.6667 21.875C16.6667 22.1513 16.5569 22.4163 16.3616 22.6116C16.1662 22.807 15.9013 22.9167 15.625 22.9167ZM12.5 2.08337C11.6759 2.08337 10.8703 2.32774 10.1851 2.78558C9.49993 3.24342 8.96588 3.89417 8.65051 4.65553C8.33515 5.41689 8.25263 6.25466 8.41341 7.06292C8.57418 7.87117 8.97102 8.6136 9.55373 9.19632C10.1365 9.77904 10.8789 10.1759 11.6871 10.3366C12.4954 10.4974 13.3332 10.4149 14.0945 10.0995C14.8559 9.78417 15.5066 9.25012 15.9645 8.56492C16.4223 7.87971 16.6667 7.07413 16.6667 6.25004C16.6667 5.14497 16.2277 4.08516 15.4463 3.30376C14.6649 2.52236 13.6051 2.08337 12.5 2.08337Z" fill="#FF8000"/>
</svg>
