<svg width="185" height="189" viewBox="0 0 185 189" fill="none" xmlns="http://www.w3.org/2000/svg">
<g clip-path="url(#clip0_5_416)">
<path d="M122.58 142.111H136.342C143.732 142.111 150.651 138.4 154.858 132.18L183.343 90.0595C185.28 87.196 185.537 83.4806 184.017 80.366C181.097 74.387 173.229 73.259 168.816 78.1867L146.204 103.438C137.115 113.589 122.836 116.921 110.347 111.807L79.47 99.1646C71.7871 96.0185 63.0838 96.9457 56.1989 101.644L23.5072 123.955C19.261 126.853 17.7872 132.534 20.0695 137.207C22.5688 142.324 28.6472 144.398 33.6459 141.84L60.7871 127.948C66.074 125.241 71.8471 130.607 69.7253 136.255L54.4165 177M58.6767 33.0833H33.1154M50.1563 59.25H33.1154M152.401 54.8889C152.401 74.1575 137.143 89.7778 118.32 89.7778C99.4971 89.7778 84.2378 74.1575 84.2378 54.8889C84.2378 35.6203 99.4971 20 118.32 20C137.143 20 152.401 35.6203 152.401 54.8889Z" stroke="#1C274C" stroke-width="3.5" stroke-linecap="round" stroke-linejoin="round"/>
</g>
<defs>
<clipPath id="clip0_5_416">
<rect width="184" height="189" fill="white" transform="translate(0.861328)"/>
</clipPath>
</defs>
</svg>
