<svg width="50" height="50" viewBox="0 0 50 50" fill="none" xmlns="http://www.w3.org/2000/svg">
<path d="M35.4167 25C41.1696 25 45.8333 20.3363 45.8333 14.5833C45.8333 8.83033 41.1696 4.16663 35.4167 4.16663C29.6638 4.16663 25 8.83033 25 14.5833C25 16.2496 25.3912 17.8246 26.0869 19.2213C26.2719 19.5925 26.3333 20.0167 26.2263 20.4173L25.6058 22.736C25.3365 23.7427 26.2573 24.6635 27.264 24.3941L29.5827 23.7737C29.9833 23.6666 30.4075 23.7281 30.7788 23.9131C32.1754 24.6087 33.7504 25 35.4167 25Z" stroke="#1C274C" stroke-width="3.75"/>
<path d="M35.4167 18.75V10.4166M39.5833 14.5833H31.25" stroke="#1C274C" stroke-width="3.75" stroke-linecap="round"/>
<path d="M30.5094 34.4661L31.4583 33.4671L29.1925 31.315L28.2435 32.314L30.5094 34.4661ZM34.5806 33.0465L38.5608 35.3375L40.1198 32.6292L36.1396 30.3381L34.5806 33.0465ZM39.329 40.0873L36.3694 43.2031L38.6352 45.3552L41.5948 42.2394L39.329 40.0873ZM34.5888 44.2015C31.5992 44.4967 23.7985 44.2448 15.3316 35.3306L13.0658 37.4827C22.2935 47.1979 31.096 47.6865 34.8956 47.3115L34.5888 44.2015ZM15.3316 35.3306C7.25631 26.8288 5.90177 19.6574 5.73294 16.512L2.61244 16.6795C2.81921 20.532 4.455 28.4173 13.0658 37.4827L15.3316 35.3306ZM18.1969 21.5034L18.7944 20.8742L16.5286 18.7221L15.9311 19.3512L18.1969 21.5034ZM19.2638 13.0419L16.6368 9.32633L14.0851 11.1304L16.7122 14.846L19.2638 13.0419ZM7.74513 8.52529L4.47513 11.968L6.74092 14.1201L10.0109 10.6774L7.74513 8.52529ZM17.064 20.4272C15.9311 19.3512 15.9296 19.3527 15.9282 19.3542C15.9277 19.3548 15.9262 19.3563 15.9252 19.3574C15.9233 19.3595 15.9212 19.3616 15.9192 19.3638C15.9151 19.3682 15.9108 19.3729 15.9065 19.3777C15.8977 19.3873 15.8885 19.3977 15.8787 19.4089C15.8592 19.4313 15.8378 19.4569 15.8149 19.4859C15.7691 19.5437 15.7173 19.6149 15.663 19.6998C15.554 19.8701 15.4358 20.0944 15.3357 20.3757C15.1321 20.9477 15.0212 21.7052 15.1598 22.6513C15.4321 24.5098 16.65 27.0092 19.8319 30.3592L22.0977 28.2071C19.1235 25.0756 18.3909 23.1471 18.2518 22.1981C18.1847 21.7404 18.2529 21.4992 18.2798 21.4234C18.295 21.3809 18.3049 21.369 18.2952 21.3842C18.2905 21.3915 18.2811 21.4052 18.2654 21.4252C18.2575 21.435 18.248 21.4467 18.2367 21.4596C18.231 21.4663 18.2249 21.4731 18.2183 21.4804C18.2149 21.484 18.2115 21.4877 18.2079 21.4915C18.2062 21.4936 18.2044 21.4954 18.2025 21.4973C18.2016 21.4984 18.2002 21.4998 18.1997 21.5004C18.1983 21.5019 18.1969 21.5034 17.064 20.4272ZM19.8319 30.3592C23.0046 33.6994 25.4006 35.0125 27.2288 35.3094C28.1669 35.4617 28.9263 35.34 29.5013 35.1134C29.7823 35.0025 30.0046 34.8723 30.1715 34.754C30.2548 34.6948 30.3242 34.6388 30.38 34.5898C30.4081 34.5652 30.4327 34.5423 30.4542 34.5215C30.465 34.5113 30.475 34.5013 30.4842 34.4921C30.4888 34.4875 30.4931 34.4829 30.4973 34.4786C30.4994 34.4765 30.5015 34.4744 30.5035 34.4723C30.5046 34.4713 30.506 34.4696 30.5065 34.4692C30.5079 34.4675 30.5094 34.4661 29.3765 33.39C28.2435 32.314 28.245 32.3125 28.2465 32.3111C28.2469 32.3104 28.2483 32.309 28.2492 32.3079C28.251 32.3061 28.2529 32.3042 28.2548 32.3023C28.2585 32.2986 28.2621 32.2948 28.2654 32.2913C28.2725 32.2844 28.2792 32.2777 28.2854 32.2717C28.2979 32.2596 28.3094 32.2492 28.3194 32.2404C28.3392 32.2229 28.354 32.2117 28.3635 32.205C28.3831 32.1911 28.381 32.1959 28.3546 32.2063C28.3144 32.2221 28.125 32.289 27.7298 32.2248C26.891 32.0886 25.0815 31.3484 22.0977 28.2071L19.8319 30.3592ZM16.6368 9.32633C14.5251 6.33971 10.2997 5.83583 7.74513 8.52529L10.0109 10.6774C11.1002 9.53066 13.0177 9.62075 14.0851 11.1304L16.6368 9.32633ZM5.73294 16.512C5.68829 15.6801 6.05052 14.847 6.74092 14.1201L4.47513 11.968C3.35877 13.1433 2.51027 14.776 2.61244 16.6795L5.73294 16.512ZM36.3694 43.2031C35.7881 43.8152 35.18 44.1431 34.5888 44.2015L34.8956 47.3115C36.4521 47.1577 37.7117 46.3277 38.6352 45.3552L36.3694 43.2031ZM18.7944 20.8742C20.8102 18.752 20.9529 15.4308 19.2638 13.0419L16.7122 14.846C17.5916 16.0899 17.4568 17.7449 16.5286 18.7221L18.7944 20.8742ZM38.5608 35.3375C40.2708 36.3219 40.6056 38.7434 39.329 40.0873L41.5948 42.2394C44.3133 39.3771 43.5217 34.5873 40.1198 32.6292L38.5608 35.3375ZM31.4583 33.4671C32.2613 32.6217 33.5125 32.4317 34.5806 33.0465L36.1396 30.3381C33.851 29.0209 31.0127 29.3986 29.1925 31.315L31.4583 33.4671Z" fill="#1C274C"/>
</svg>
