<svg width="228" height="195" viewBox="0 0 228 195" fill="none" xmlns="http://www.w3.org/2000/svg">
<g clip-path="url(#clip0_5_418)">
<path d="M203.565 182.5H179.703L179.631 177.232C179.655 177.086 179.607 163.802 177.959 143.49C175.952 118.77 173.086 95.6033 140.434 77.6197L145.928 72.4995C163.556 81.7326 178.675 94.5331 185.985 105.424C195.467 119.588 198.716 127.122 201.558 140.216C206.407 162.376 203.684 181.786 203.565 182.5Z" fill="#755E49"/>
<path d="M131.434 177.784C131.434 180.775 131.113 183.68 130.495 186.5H30.3725C29.7549 183.68 29.4338 180.753 29.4338 177.784C29.4338 172.615 30.4219 167.638 32.2005 163.003C39.0928 145.252 58.0896 132.5 80.4214 132.5C102.753 132.5 121.75 145.252 128.642 163.003C130.47 167.638 131.434 172.615 131.434 177.784Z" fill="#FF9D00"/>
<path d="M228.434 183.5C228.434 186.816 226.905 189.805 224.463 191.987C222.021 194.169 218.617 195.5 214.868 195.5H20.9996C13.5014 195.5 7.43378 190.132 7.43378 183.5C7.43378 180.183 8.96302 177.194 11.4049 175.012C13.8714 172.852 17.2505 171.5 20.9996 171.5H214.868C222.366 171.5 228.434 176.867 228.434 183.5Z" fill="#00B7FF"/>
<path d="M226.015 79.4233C228.409 79.4233 229.337 76.3569 227.358 75.0618C220.226 70.3765 206.353 63.5961 185.909 63.5009C165.319 63.3866 151.494 70.3765 144.485 75.157C142.531 76.4902 143.483 79.4995 145.852 79.4995L226.015 79.4233Z" fill="#02C652"/>
<path d="M203.83 32.6851C205.511 31.2512 203.415 28.321 200.832 28.5081C191.547 29.1938 175.633 32.311 161.132 44.5305C146.51 56.833 143.074 70.5279 142.44 78.4456C142.269 80.6484 145.657 82.4148 147.339 80.9809L203.83 32.6851Z" fill="#02C652"/>
<path d="M148.839 78.7641C150.494 77.3031 148.432 74.3177 145.89 74.5082C136.755 75.2069 121.097 78.383 106.831 90.8329C92.4441 103.368 89.0633 117.321 88.4399 125.388C88.272 127.632 91.6049 129.432 93.2594 127.971L148.839 78.7641Z" fill="#02C652"/>
<path d="M151.339 8.63382C151.339 6.52178 147.506 5.70283 145.887 7.44849C140.03 13.7415 131.555 25.9827 131.436 44.0212C131.293 62.1891 140.03 74.3872 146.006 80.5724C147.672 82.2965 151.434 81.456 151.434 79.3656L151.339 8.63382Z" fill="#02C652"/>
<path d="M151.339 74.6054C151.339 72.5215 147.506 71.7134 145.887 73.4358C140.03 79.6449 131.555 91.7229 131.436 109.521C131.293 127.447 140.03 139.482 146.006 145.585C147.672 147.286 151.434 146.457 151.434 144.394L151.339 74.6054Z" fill="#02C652"/>
<path d="M148.958 81.4138C151.408 81.4138 152.358 77.9641 150.333 76.5071C143.033 71.2361 128.833 63.6082 107.909 63.5011C86.8339 63.3725 72.6841 71.2361 65.5092 76.6142C63.5092 78.1141 64.4842 81.4995 66.9092 81.4995L148.958 81.4138Z" fill="#02C652"/>
</g>
<defs>
<clipPath id="clip0_5_418">
<rect width="228" height="195" fill="white"/>
</clipPath>
</defs>
</svg>
